<?xml version="1.0" encoding="utf-8"?>
<!-- Generator: Adobe Illustrator 26.4.1, SVG Export Plug-In . SVG Version: 6.00 Build 0)  -->
<svg version="1.1" id="Layer_1" xmlns="http://www.w3.org/2000/svg" xmlns:xlink="http://www.w3.org/1999/xlink" x="0px" y="0px"
	 viewBox="0 0 413 81" style="enable-background:new 0 0 413 81;" xml:space="preserve">
<style type="text/css">
	.st0{fill:#FFFFFF;}
</style>
<path class="st0" d="M34.4,0c10.5,0,21,3.4,28.9,9L53.1,24.2C47,19.5,39.2,17.1,34,17.1c-5.6,0-8.3,2-8.3,5.9
	c0,4.6,5.4,6.6,14.4,9.1c14,3.7,25,10.2,25,24.2C65.1,70.7,54.3,81,33.8,81C21.6,81,10.6,77.4,0,69.7l10.3-15.4
	c7.1,5.9,15.9,9.5,23.5,9.5c6.1,0,9.8-2.7,9.8-6.8c0-4.9-5.1-6.4-13.5-8.8c-13-3.6-25.9-8.5-25.9-24.7C4.3,9.8,16.8,0,34.4,0z"/>
<path class="st0" d="M135.7,68.8c-5.4,7.4-13.5,12.2-23.3,12.2C91.4,81,76,63.4,76,40.6C76,17.6,91.4,0,112.4,0
	c10,0,17.9,4.7,23.3,12.2l2.5-10.5H158v77.6h-19.8L135.7,68.8z M136.6,40.6c0-11.8-8.1-20.6-19.3-20.6S98,28.8,98,40.6
	c0,11.7,8.1,20.5,19.3,20.5C128.4,61,136.6,52.2,136.6,40.6z"/>
<path class="st0" d="M261.7,31.3v48h-22.5V1.7H259l2.7,11.2C267.8,4.8,276.6,0,285.6,0c18.6,0,29.8,13,29.8,34v45.3h-22.5V37.2
	c0-10.5-5.1-16.7-14.2-16.7C272.2,20.4,266.3,24,261.7,31.3z"/>
<path class="st0" d="M390.7,68.8c-5.4,7.4-13.5,12.2-23.3,12.2c-21,0-36.4-17.6-36.4-40.4c0-23,15.4-40.6,36.4-40.6
	c10,0,17.9,4.7,23.3,12.2l2.5-10.5H413v77.6h-19.8L390.7,68.8z M391.5,40.6c0-11.8-8.1-20.6-19.3-20.6c-11.2,0-19.3,8.8-19.3,20.6
	c0,11.7,8.1,20.5,19.3,20.5C383.4,61,391.5,52.2,391.5,40.6z"/>
<circle class="st0" cx="198.6" cy="40.5" r="19.8"/>
</svg>
